<!DOCTYPE svg PUBLIC "-//W3C//DTD SVG 1.1//EN" "http://www.w3.org/Graphics/SVG/1.1/DTD/svg11.dtd">
<!-- Uploaded to: SVG Repo, www.svgrepo.com, Transformed by: SVG Repo Mixer Tools -->
<svg version="1.1" id="Layer_1" xmlns="http://www.w3.org/2000/svg" xmlns:xlink="http://www.w3.org/1999/xlink" viewBox="0 0 512 512" xml:space="preserve" width="100px" height="100px" fill="#000000">
<g id="SVGRepo_bgCarrier" stroke-width="0"/>
<g id="SVGRepo_tracerCarrier" stroke-linecap="round" stroke-linejoin="round"/>
<g id="SVGRepo_iconCarrier"> <polygon style="fill:#CEE8FA;" points="222.881,217.756 289.119,255.999 222.881,294.244 "/> <path style="fill:#2D527C;" d="M222.879,308.706c-2.498,0-4.994-0.645-7.231-1.938c-4.475-2.583-7.231-7.357-7.231-12.525v-76.487 c0-5.168,2.757-9.942,7.231-12.525c4.475-2.583,9.988-2.583,14.463,0l66.24,38.243c4.475,2.583,7.231,7.357,7.231,12.525 s-2.757,9.942-7.231,12.525l-66.24,38.243C227.875,308.06,225.377,308.706,222.879,308.706z M237.342,242.806v26.386l22.851-13.193 L237.342,242.806z"/> <g> <rect x="135.228" y="342.785" style="fill:#CEE8FA;" width="241.531" height="154.753"/> <rect x="135.228" y="14.463" style="fill:#CEE8FA;" width="241.531" height="154.753"/> </g> <g> <path style="fill:#2D527C;" d="M458.325,0h-81.558H135.231H53.673C45.685,0,39.21,6.475,39.21,14.463v295.539 c0,7.988,6.475,14.463,14.463,14.463s14.463-6.475,14.463-14.463V147.164h52.632v22.052c0,7.988,6.475,14.463,14.463,14.463 h227.075v89.67c0,7.988,6.475,14.463,14.463,14.463s14.463-6.475,14.463-14.463V169.216v-22.052h67.095 c7.988,0,14.463-6.475,14.463-14.463V14.463C472.788,6.475,466.313,0,458.325,0z M68.136,118.239V28.926h52.632v89.313H68.136z M149.694,154.753V28.926h212.612v103.761c0,0.004,0,0.009,0,0.014s0,0.009,0,0.014v22.037H149.694z M391.232,28.926h52.632v89.313 h-52.632V28.926z"/> <path style="fill:#2D527C;" d="M458.325,187.652c-7.988,0-14.463,6.475-14.463,14.463v162.721H391.23v-22.052 c0-7.988-6.475-14.463-14.463-14.463H149.694v-85.823c0-7.988-6.475-14.463-14.463-14.463s-14.463,6.475-14.463,14.463v100.286 v22.052H53.673c-7.988,0-14.463,6.475-14.463,14.463v118.239c0,7.988,6.475,14.463,14.463,14.463h81.558h241.538h81.558 c7.988,0,14.463-6.475,14.463-14.463V202.115C472.788,194.127,466.313,187.652,458.325,187.652z M68.136,393.761h52.632v89.313 H68.136V393.761z M149.694,483.074V357.247h212.612v22.037c0,0.004,0,0.009,0,0.014c0,0.006,0,0.009,0,0.014v103.761 L149.694,483.074L149.694,483.074z M391.232,483.074v-89.313h52.632v89.313H391.232z"/> </g> </g>
</svg>